<svg xmlns="http://www.w3.org/2000/svg" viewBox="0 0 108.94 150"><defs><style>.cls-1{opacity:0.5;}.cls-2,.cls-3,.cls-4,.cls-5,.cls-6,.cls-7,.cls-8{fill:none;stroke:#cacaca;}.cls-10,.cls-11,.cls-12,.cls-2,.cls-3,.cls-4,.cls-5,.cls-6,.cls-7,.cls-8,.cls-9{stroke-miterlimit:10;}.cls-2,.cls-3,.cls-4,.cls-5,.cls-6,.cls-7,.cls-8,.cls-9{stroke-width:2px;}.cls-3{stroke-dasharray:10.71 10.71;}.cls-4{stroke-dasharray:8.58 8.58;}.cls-5{stroke-dasharray:8.89 8.89;}.cls-6{stroke-dasharray:8.98 8.98;}.cls-7{stroke-dasharray:9.12 9.12;}.cls-8{stroke-dasharray:9.32 9.32;}.cls-12,.cls-13,.cls-9{fill:#4665bb;}.cls-10,.cls-11,.cls-12,.cls-13,.cls-9{stroke:#fff;}.cls-10,.cls-11{fill:#5569a7;}.cls-10{stroke-width:3.09px;}.cls-11{stroke-width:1.54px;}.cls-13{stroke-linecap:round;stroke-linejoin:round;}</style></defs><title>apps</title><g id="Layer_2" data-name="Layer 2"><g id="Layer_1-2" data-name="Layer 1"><g class="cls-1"><line class="cls-2" x1="1" y1="121.92" x2="1" y2="117.29"/><line class="cls-3" x1="1" y1="106.58" x2="1" y2="69.1"/><line class="cls-2" x1="1" y1="63.74" x2="1" y2="59.11"/><line class="cls-2" x1="20.8" y1="130.79" x2="20.8" y2="126.16"/><line class="cls-4" x1="20.8" y1="117.58" x2="20.8" y2="53.25"/><line class="cls-2" x1="20.8" y1="48.97" x2="20.8" y2="44.33"/><line class="cls-2" x1="41.4" y1="150" x2="41.4" y2="145.37"/><line class="cls-5" x1="41.4" y1="136.48" x2="41.4" y2="34.2"/><line class="cls-2" x1="41.4" y1="29.75" x2="41.4" y2="25.12"/><line class="cls-2" x1="64.37" y1="143.9" x2="64.37" y2="139.27"/><line class="cls-6" x1="64.37" y1="130.29" x2="64.37" y2="9.12"/><line class="cls-2" x1="64.37" y1="4.63" x2="64.37"/><line class="cls-2" x1="83.38" y1="130.05" x2="83.38" y2="125.42"/><line class="cls-7" x1="83.38" y1="116.3" x2="83.38" y2="11.41"/><line class="cls-2" x1="83.38" y1="6.85" x2="83.38" y2="2.22"/><line class="cls-2" x1="107.94" y1="113.79" x2="107.94" y2="109.16"/><line class="cls-8" x1="107.94" y1="99.85" x2="107.94" y2="29.98"/><line class="cls-2" x1="107.94" y1="25.32" x2="107.94" y2="20.69"/></g><rect class="cls-9" x="-10.24" y="38.95" width="128.19" height="72.1" rx="4" ry="4" transform="translate(-21.15 128.85) rotate(-90)"/><rect class="cls-9" x="2.26" y="37.77" width="103.18" height="61.01" rx="2" ry="2" transform="translate(-14.42 122.12) rotate(-90)"/><line class="cls-9" x1="23.67" y1="104.64" x2="84.04" y2="104.64"/><line class="cls-10" x1="31.57" y1="70.73" x2="49.57" y2="70.73"/><line class="cls-9" x1="26.83" y1="20.64" x2="32.38" y2="20.64"/><line class="cls-9" x1="34.59" y1="20.64" x2="40.14" y2="20.64"/><line class="cls-9" x1="74.56" y1="20.64" x2="80.11" y2="20.64"/><line class="cls-11" x1="31.57" y1="84.61" x2="75.47" y2="84.61"/><line class="cls-11" x1="31.57" y1="79.94" x2="71.16" y2="79.94"/><line class="cls-11" x1="31.57" y1="89.28" x2="65.4" y2="89.28"/><line class="cls-11" x1="84.3" y1="24.53" x2="23.41" y2="24.53"/><line class="cls-11" x1="84.3" y1="61.38" x2="23.41" y2="61.38"/><circle class="cls-9" cx="53.85" cy="129.88" r="6.01"/><circle class="cls-12" cx="32.02" cy="112.25" r="4.01"/><circle class="cls-12" cx="46.57" cy="112.25" r="4.01"/><circle class="cls-12" cx="61.13" cy="112.25" r="4.01"/><circle class="cls-12" cx="75.68" cy="112.25" r="4.01"/><polyline class="cls-13" points="38.63 61.38 38.63 53.37 45.04 53.37 39.03 45.76 42.63 45.76 38.43 39.95 40.23 39.95 37.43 35.74 34.62 39.95 36.43 39.95 32.22 45.76 35.83 45.76 29.82 53.37 36.23 53.37 36.23 61.38"/><circle class="cls-13" cx="73.48" cy="36.14" r="3"/><line class="cls-13" x1="73.48" y1="31.64" x2="73.48" y2="30.14"/><line class="cls-13" x1="73.48" y1="42.15" x2="73.48" y2="40.65"/><line class="cls-13" x1="70.29" y1="32.96" x2="69.23" y2="31.89"/><line class="cls-13" x1="77.73" y1="40.39" x2="76.67" y2="39.33"/><line class="cls-13" x1="68.97" y1="36.14" x2="67.47" y2="36.14"/><line class="cls-13" x1="79.49" y1="36.14" x2="77.99" y2="36.14"/><line class="cls-13" x1="70.29" y1="39.33" x2="69.23" y2="40.39"/><line class="cls-13" x1="77.73" y1="31.89" x2="76.67" y2="32.96"/><polyline class="cls-13" points="41 43.49 46.64 43.49 53.98 50.84 57.06 47.76 66.67 47.76 75.08 56.17 78.29 52.97 83.49 52.97"/><line class="cls-13" x1="33.86" y1="43.5" x2="24.21" y2="43.5"/></g></g></svg>