<svg xmlns="http://www.w3.org/2000/svg" viewBox="0 0 133.53 105.08"><defs><style>.cls-1{opacity:0.5;}.cls-2,.cls-3,.cls-4,.cls-5,.cls-6,.cls-7{fill:none;stroke:#cacaca;}.cls-10,.cls-11,.cls-12,.cls-2,.cls-3,.cls-4,.cls-5,.cls-6,.cls-7,.cls-8{stroke-miterlimit:10;}.cls-2,.cls-3,.cls-4,.cls-5,.cls-6,.cls-7,.cls-8,.cls-9{stroke-width:2px;}.cls-3{stroke-dasharray:8.56 8.56;}.cls-4{stroke-dasharray:9.33 9.33;}.cls-5{stroke-dasharray:9.31 9.31;}.cls-6{stroke-dasharray:10.03 10.03;}.cls-7{stroke-dasharray:8.61 8.61;}.cls-8,.cls-9{fill:#4665bb;}.cls-11,.cls-12,.cls-8,.cls-9{stroke:#fff;}.cls-9{stroke-linecap:round;stroke-linejoin:round;}.cls-10{fill:#fff;stroke:#4665bb;stroke-width:4px;}.cls-11,.cls-12{fill:#5569a7;}.cls-11{stroke-width:3.09px;}.cls-12{stroke-width:1.54px;}</style></defs><title>banners</title><g id="Layer_2" data-name="Layer 2"><g id="Layer_1-2" data-name="Layer 1"><g class="cls-1"><line class="cls-2" x1="24.99" y1="78.23" x2="24.99" y2="73.6"/><line class="cls-3" x1="24.99" y1="65.05" x2="24.99" y2="35.1"/><line class="cls-2" x1="24.99" y1="30.83" x2="24.99" y2="26.19"/><line class="cls-2" x1="44.71" y1="105.08" x2="44.71" y2="100.45"/><line class="cls-4" x1="44.71" y1="91.12" x2="44.71" y2="21.15"/><line class="cls-2" x1="44.71" y1="16.48" x2="44.71" y2="11.85"/><line class="cls-2" x1="66.7" y1="74.4" x2="66.7" y2="69.77"/><line class="cls-5" x1="66.7" y1="60.46" x2="66.7" y2="9.28"/><line class="cls-2" x1="66.7" y1="4.63" x2="66.7"/><line class="cls-2" x1="84.9" y1="90.18" x2="84.9" y2="85.55"/><line class="cls-6" x1="84.9" y1="75.53" x2="84.9" y2="20.38"/><line class="cls-2" x1="84.9" y1="15.37" x2="84.9" y2="10.74"/><line class="cls-2" x1="108.41" y1="78.05" x2="108.41" y2="73.42"/><line class="cls-7" x1="108.41" y1="64.81" x2="108.41" y2="17.48"/><line class="cls-2" x1="108.41" y1="13.17" x2="108.41" y2="8.54"/></g><rect class="cls-8" x="1" y="27.26" width="131.41" height="50.56" rx="2" ry="2"/><line class="cls-8" x1="59.54" y1="77.82" x2="88.43" y2="27.24"/><line class="cls-8" x1="64.91" y1="77.82" x2="93.8" y2="27.24"/><line class="cls-8" x1="71.05" y1="77.82" x2="99.94" y2="27.24"/><line class="cls-8" x1="77.19" y1="77.82" x2="106.08" y2="27.24"/><line class="cls-8" x1="83.32" y1="77.82" x2="112.21" y2="27.24"/><line class="cls-8" x1="89.46" y1="77.82" x2="118.35" y2="27.24"/><line class="cls-8" x1="95.59" y1="77.82" x2="124.48" y2="27.24"/><line class="cls-8" x1="101.73" y1="77.82" x2="130.62" y2="27.24"/><line class="cls-8" x1="107.87" y1="77.82" x2="132.66" y2="34.9"/><line class="cls-8" x1="114" y1="77.82" x2="132.66" y2="45.64"/><line class="cls-8" x1="120.14" y1="77.82" x2="132.66" y2="56.37"/><line class="cls-9" x1="126.27" y1="77.82" x2="131.9" y2="67.88"/><rect class="cls-10" x="84.66" y="44.9" width="38.35" height="15.34" rx="2" ry="2"/><line class="cls-11" x1="13.14" y1="43.66" x2="42.74" y2="43.66"/><line class="cls-12" x1="13.01" y1="56.95" x2="61.33" y2="56.95"/><line class="cls-12" x1="13.01" y1="52.47" x2="56.58" y2="52.47"/><line class="cls-12" x1="13.01" y1="61.42" x2="50.24" y2="61.42"/></g></g></svg>