<svg xmlns="http://www.w3.org/2000/svg" viewBox="0 0 85.45 149.08"><defs><style>.cls-1{opacity:0.5;}.cls-2,.cls-3,.cls-4,.cls-5{fill:none;stroke:#cacaca;stroke-miterlimit:10;}.cls-2,.cls-3,.cls-4,.cls-5,.cls-7{stroke-width:2px;}.cls-3{stroke-dasharray:8.48 8.48;}.cls-4{stroke-dasharray:9.75 9.75;}.cls-5{stroke-dasharray:8.57 8.57;}.cls-6,.cls-7{fill:#4665bb;stroke:#fff;stroke-linecap:round;stroke-linejoin:round;}.cls-6{stroke-width:4px;}</style></defs><title>brand</title><g id="Layer_2" data-name="Layer 2"><g id="Layer_1-2" data-name="Layer 1"><g class="cls-1"><line class="cls-2" x1="14.05" y1="136.5" x2="14.05" y2="131.87"/><line class="cls-3" x1="14.05" y1="123.39" x2="14.05" y2="42.87"/><line class="cls-2" x1="14.05" y1="38.63" x2="14.05" y2="34"/><line class="cls-2" x1="42.72" y1="97" x2="42.72" y2="92.37"/><line class="cls-4" x1="42.72" y1="82.62" x2="42.72" y2="9.5"/><line class="cls-2" x1="42.72" y1="4.63" x2="42.72"/><line class="cls-2" x1="66.45" y1="149.08" x2="66.45" y2="144.45"/><line class="cls-5" x1="66.45" y1="135.88" x2="66.45" y2="54.42"/><line class="cls-2" x1="66.45" y1="50.13" x2="66.45" y2="45.5"/></g><path class="cls-6" d="M65.66,47.1A41,41,0,1,0,83.45,88.65,32.79,32.79,0,0,1,65.66,47.1Z"/><path class="cls-6" d="M38.6,35A27.55,27.55,0,0,0,17.17,13.59,22,22,0,0,0,38.6,35Z"/><path class="cls-7" d="M21.2,57.22A13.92,13.92,0,0,0,34,48.78,11.11,11.11,0,0,0,21.2,57.22Z"/></g></g></svg>