<svg xmlns="http://www.w3.org/2000/svg" viewBox="0 0 30.09 30.09"><defs><style>.cls-1{fill:#4d66ab;}</style></defs><title>ic_fb</title><g id="Layer_2" data-name="Layer 2"><g id="Layer_1-2" data-name="Layer 1"><path id="fb_Hover" class="cls-1" d="M30.08,15.08c0,4.42,0,8.84,0,13.26a1.68,1.68,0,0,1-.59,1.39,1.28,1.28,0,0,1-.9.35H22.68c-.62,0-.64,0-.64-.68,0-2.56,0-5.11,0-7.67,0-.92,0-1.83,0-2.75S22,18,23,18h2.92c.59,0,.59,0,.62-.61.05-1,.12-2,.16-3.07,0-.59,0-.61-.6-.61H22.85c-.8,0-.8,0-.81-.77s0-1.78,0-2.67a1.57,1.57,0,0,1,1.75-1.76c.69,0,1.39,0,2.08,0s.65,0,.69-.63c.05-.88.12-1.77.14-2.65,0-.6-.07-.68-.66-.69a30.25,30.25,0,0,0-3.42,0,5.18,5.18,0,0,0-5.06,5.26c0,1.08,0,2.17,0,3.25,0,.63,0,.65-.67.66s-1.33,0-2,0c-.35,0-.51.12-.5.48q0,1.67,0,3.34c0,.36.14.5.5.49.61,0,1.22,0,1.83,0,.83,0,.84,0,.84.82q0,2.92,0,5.84c0,1.56,0,3.11,0,4.67,0,.7,0,.72-.69.72-5.06,0-10.12,0-15.18,0A1.77,1.77,0,0,1,0,28.4C.06,27.26,0,26.12,0,25Q0,13.64,0,2.3a6.26,6.26,0,0,1,0-.67A1.68,1.68,0,0,1,1.62,0,4.83,4.83,0,0,1,2.2,0H28.47a1.56,1.56,0,0,1,1.61,1.65c0,1.56,0,3.11,0,4.67Q30.08,10.7,30.08,15.08Z"/></g></g></svg>