<svg xmlns="http://www.w3.org/2000/svg" viewBox="0 0 20 20"><defs><style>.cls-1{fill:#f9f9fb;}.cls-2{fill:none;}</style></defs><title>ic_mail</title><g id="Layer_2" data-name="Layer 2"><g id="Layer_1-2" data-name="Layer 1"><path id="ic_mail" class="cls-1" d="M18,9.47V17a1,1,0,0,1-.13.5,1,1,0,0,1-.37.37A1,1,0,0,1,17,18H3a1,1,0,0,1-.7-.29A1,1,0,0,1,2,17V9.52a1,1,0,0,1,.45-.84L5,6.12V4.48A.51.51,0,0,1,5.5,4H7.16L9,2.42a1.41,1.41,0,0,1,.38-.27A1.49,1.49,0,0,1,9.8,2a1.79,1.79,0,0,1,.47,0,1.49,1.49,0,0,1,.45.13,1.42,1.42,0,0,1,.38.27L12.92,4H14.5a.51.51,0,0,1,.5.5V6.09l2.61,2.63.09.09.08.09,0,0,.08.1.05.12,0,.13a.53.53,0,0,1,0,.13A.26.26,0,0,1,18,9.47Zm-15,1v5.8l3.2-3Zm.59-1.59-.42.41L5,10.94V7.55L3.63,8.92ZM3.72,17H16.33l-6-5.44a.58.58,0,0,0-.37-.12.6.6,0,0,0-.39.14l-2.16,2,0,.05,0,0a.54.54,0,0,1-.17.14ZM6,5v6.84l.94.83,2-1.84a1.28,1.28,0,0,1,.21-.14l.23-.11.23-.08.24,0h.24l.24,0,.23.07.22.1.2.14,2.14,1.94.89-.8V5ZM8.67,4h2.72l-1-.86a.75.75,0,0,0-.17-.1A.5.5,0,0,0,10,3a.52.52,0,0,0-.36.14ZM17,16.25V10.61l-3.16,2.8ZM15,7.48V11l1.88-1.67L16,8.52h0Z"/><rect class="cls-2" width="20" height="20"/></g></g></svg>