<svg xmlns="http://www.w3.org/2000/svg" viewBox="0 0 20 20"><defs><style>.cls-1{fill:#f9f9fb;}.cls-2{fill:none;}</style></defs><title>ic_phone</title><g id="Layer_2" data-name="Layer 2"><g id="Layer_1-2" data-name="Layer 1"><path id="ic_phone" class="cls-1" d="M6.07,2.61Q7,3.83,8.16,5.73A1.22,1.22,0,0,1,8.07,7q-.13.25-.75,1.39c.08.13.18.26.29.39L8,9.18l.41.46.46.49.51.52a20.3,20.3,0,0,0,2.28,2q1-.59,1.39-.78a1.54,1.54,0,0,1,.75-.22.91.91,0,0,1,.48.13q1.39.84,3.16,2.09a1,1,0,0,1,.38.66,1.39,1.39,0,0,1-.27.91c-.08.13-.25.33-.48.63a11,11,0,0,1-1,1,1.85,1.85,0,0,1-1.09.63h0a7.6,7.6,0,0,1-3.58-1.27A24.38,24.38,0,0,1,7,13Q2.35,8.27,2.22,5.06A1.93,1.93,0,0,1,2.85,4a10.42,10.42,0,0,1,1-1l.66-.48a1.28,1.28,0,0,1,.77-.23A.94.94,0,0,1,6.07,2.61Zm-1,.64a9.68,9.68,0,0,0-1.19,1,2.89,2.89,0,0,0-.66.83q.12,2.81,4.49,7.17t7.2,4.52a3.19,3.19,0,0,0,.8-.67,10.83,10.83,0,0,0,1-1.2.36.36,0,0,0,.06-.12.17.17,0,0,0,0-.1q-1.8-1.25-3-2a.74.74,0,0,0-.31.09l-.5.28-.86.47-.52.31-.52-.34a17.23,17.23,0,0,1-2.42-2.14A20,20,0,0,1,6.52,8.91l-.37-.48.31-.55.75-1.36A.73.73,0,0,0,7.3,6.2q-.53-.84-1-1.6t-1-1.41h0A.39.39,0,0,0,5.07,3.25Z"/><rect class="cls-2" width="20" height="20"/></g></g></svg>