<?xml version="1.0" encoding="utf-8"?>
<!-- Generator: Adobe Illustrator 21.1.0, SVG Export Plug-In . SVG Version: 6.00 Build 0)  -->
<svg version="1.1" id="Layer_1" xmlns="http://www.w3.org/2000/svg" xmlns:xlink="http://www.w3.org/1999/xlink" x="0px" y="0px"
	 viewBox="0 0 1091.2 124.1" style="enable-background:new 0 0 1091.2 124.1; color:#FFFFFF" xml:space="preserve">
<title>imaguruLogo</title>
<g id="Layer_2">
	<g id="Layer_1-2">
		<path d="M412.2,79.4h-31.1l15.3-48.3L412.2,79.4z M419.9,102.4l6.8,20.2h28.9l-44.2-119h-30.6l-42.5,119h28.9l6.5-20.2
			L419.9,102.4z M53.6,98.9V25.2h22.9V2.5H0v22.7h24.7v73.7H0v22.7h76.5V98.9H53.6z M1091.1,121.8V0.3h-25.5v96h-52.4v-96h-25.5
			v121.6H1091.1z M782,2.5h-27.2v67.3c0,18.4-8.3,29.6-21.9,29.6h-5.1c-14.5,0-23.3-11.4-23.3-29.6V2.5h-27.2v69
			c0,33.7,19,52.5,50.5,52.5h5.1c30.6,0,49.1-18.9,49.1-52.5V2.5z M851.3,63.2v-36h51c10.2,0,16.3,6.6,16.3,17.5
			c0,11.7-6.3,18.5-16.3,18.5L851.3,63.2z M822.4,121.6h28.9V87.9h48.6l18,33.7h33l-21.6-40.5c12.6-7.5,19.7-20.4,19.7-36.7
			c0-24.6-17.8-41.8-46.8-41.8h-79.9L822.4,121.6z M634.9,122.6V55.5h-77.8v21.2h50.1v20.5h-88.3V28.9h116V3.6H491.1v119
			L634.9,122.6L634.9,122.6z M301.3,121.6v-69c0-33.7-19-52.5-50.5-52.5h-5.1c-15.4,0-27.7,4.7-36.1,13.7C200.9,4.8,188.2,0,172.4,0
			h-5.1c-30.6,0-49.1,18.9-49.1,52.5v69h27.2V54.2c0-18.4,8.3-29.6,21.9-29.6h5.1c14.4,0,23.3,11.4,23.3,29.6v67.3h28.1V54.2
			c0-18.4,8.3-29.6,21.9-29.6h5.1c14.5,0,23.3,11.4,23.3,29.6v67.3H301.3z"/>
	</g>
</g>
</svg>
