<svg xmlns="http://www.w3.org/2000/svg" viewBox="0 0 139.26 150"><defs><style>.cls-1{opacity:0.5;}.cls-2,.cls-3,.cls-4,.cls-5,.cls-6,.cls-7{fill:none;stroke:#cacaca;}.cls-10,.cls-11,.cls-2,.cls-3,.cls-4,.cls-5,.cls-6,.cls-7,.cls-8,.cls-9{stroke-miterlimit:10;}.cls-2,.cls-3,.cls-4,.cls-5,.cls-6,.cls-7,.cls-8{stroke-width:2px;}.cls-3{stroke-dasharray:10.71 10.71;}.cls-4{stroke-dasharray:8.58 8.58;}.cls-5{stroke-dasharray:8.89 8.89;}.cls-6{stroke-dasharray:9.12 9.12;}.cls-7{stroke-dasharray:9.32 9.32;}.cls-8{fill:#4665bb;}.cls-10,.cls-11,.cls-8,.cls-9{stroke:#f9f9fb;}.cls-10,.cls-11,.cls-9{fill:#5569a7;}.cls-9{stroke-width:4px;}.cls-10{stroke-width:3.09px;}.cls-11{stroke-width:1.54px;}.cls-12{fill:#f9f9fb;}</style></defs><title>sites</title><g id="Layer_2" data-name="Layer 2"><g id="Layer_1-2" data-name="Layer 1"><g class="cls-1"><line class="cls-2" x1="16.78" y1="121.92" x2="16.78" y2="117.29"/><line class="cls-3" x1="16.78" y1="106.58" x2="16.78" y2="69.1"/><line class="cls-2" x1="16.78" y1="63.74" x2="16.78" y2="59.11"/><line class="cls-2" x1="36.58" y1="130.79" x2="36.58" y2="126.16"/><line class="cls-4" x1="36.58" y1="117.58" x2="36.58" y2="53.25"/><line class="cls-2" x1="36.58" y1="48.97" x2="36.58" y2="44.33"/><line class="cls-2" x1="57.18" y1="150" x2="57.18" y2="145.37"/><line class="cls-5" x1="57.18" y1="136.48" x2="57.18" y2="34.2"/><line class="cls-2" x1="57.18" y1="29.75" x2="57.18" y2="25.12"/><line class="cls-2" x1="80.15" y1="127.83" x2="80.15" y2="123.2"/><line class="cls-6" x1="80.15" y1="114.08" x2="80.15" y2="9.19"/><line class="cls-2" x1="80.15" y1="4.63" x2="80.15"/><line class="cls-2" x1="99.16" y1="130.05" x2="99.16" y2="125.42"/><line class="cls-6" x1="99.16" y1="116.3" x2="99.16" y2="11.41"/><line class="cls-2" x1="99.16" y1="6.85" x2="99.16" y2="2.22"/><line class="cls-2" x1="123.72" y1="113.79" x2="123.72" y2="109.16"/><line class="cls-7" x1="123.72" y1="99.85" x2="123.72" y2="29.98"/><line class="cls-2" x1="123.72" y1="25.32" x2="123.72" y2="20.69"/></g><rect class="cls-8" x="1" y="28.37" width="137.26" height="80.38" rx="4" ry="4"/><rect class="cls-8" x="7.18" y="34.55" width="124.9" height="68.01" rx="0.77" ry="0.77"/><rect class="cls-8" x="7.18" y="34.55" width="124.9" height="7.42"/><line class="cls-9" x1="7.14" y1="88.62" x2="132.12" y2="88.62"/><line class="cls-9" x1="7.14" y1="91.82" x2="132.12" y2="91.82"/><line class="cls-9" x1="7.14" y1="95.03" x2="132.12" y2="95.03"/><line class="cls-9" x1="7.14" y1="98.23" x2="132.12" y2="98.23"/><line class="cls-9" x1="7.14" y1="101.44" x2="132.12" y2="101.44"/><rect class="cls-8" x="38.43" y="84.02" width="31.2" height="18.55"/><rect class="cls-8" x="69.63" y="84.02" width="31.2" height="18.55"/><line class="cls-10" x1="52.94" y1="53.1" x2="83.85" y2="53.1"/><line class="cls-8" x1="17.08" y1="38.26" x2="23.26" y2="38.26"/><line class="cls-8" x1="25.73" y1="38.26" x2="31.91" y2="38.26"/><line class="cls-8" x1="34.39" y1="38.26" x2="40.57" y2="38.26"/><line class="cls-8" x1="43.04" y1="38.26" x2="49.23" y2="38.26"/><line class="cls-11" x1="30.68" y1="66.98" x2="106.11" y2="66.98"/><line class="cls-11" x1="34.39" y1="62.31" x2="102.4" y2="62.31"/><line class="cls-11" x1="39.33" y1="71.65" x2="97.45" y2="71.65"/><circle class="cls-12" cx="11.2" cy="38.26" r="1.55"/><rect class="cls-8" x="54.17" y="108.75" width="29.68" height="18.55"/><path class="cls-8" d="M38.79,127.3H99.23a1.93,1.93,0,0,1,1.93,1.93v3a0,0,0,0,1,0,0H36.86a0,0,0,0,1,0,0v-3A1.93,1.93,0,0,1,38.79,127.3Z"/></g></g></svg>